<?xml version="1.0" standalone="no"?>
<!DOCTYPE svg PUBLIC "-//W3C//DTD SVG 20010904//EN"
 "http://www.w3.org/TR/2001/REC-SVG-20010904/DTD/svg10.dtd">
<svg version="1.0" xmlns="http://www.w3.org/2000/svg"
 width="1500.000000pt" height="1500.000000pt" viewBox="0 0 1500.000000 1500.000000"
 preserveAspectRatio="xMidYMid meet">
<metadata>
Created by potrace 1.10, written by Peter Selinger 2001-2011
</metadata>
<g transform="translate(0.000000,1500.000000) scale(0.100000,-0.100000)"
fill="#000000" stroke="none">
<path d="M2526 13984 c-13 -12 -16 -40 -16 -138 0 -81 4 -126 12 -134 9 -9
107 -12 378 -12 201 0 370 -4 376 -8 14 -10 27 -61 79 -322 25 -124 53 -259
61 -300 9 -41 20 -95 24 -120 5 -25 19 -88 31 -140 12 -52 25 -115 29 -140 4
-25 12 -65 18 -90 5 -25 17 -79 26 -120 9 -41 22 -106 31 -145 37 -172 98
-477 109 -548 8 -43 18 -83 23 -88 10 -10 1212 -13 1222 -3 3 3 8 59 9 125 l4
119 -27 10 c-16 6 -208 10 -505 10 -447 0 -479 1 -484 18 -3 9 -21 96 -41 192
-19 96 -39 193 -44 215 -5 22 -17 78 -26 125 -9 47 -23 108 -31 136 -8 28 -14
61 -14 73 0 12 -6 47 -14 79 -8 31 -22 91 -30 132 -9 41 -22 107 -31 145 -25
118 -126 617 -136 674 -6 30 -12 58 -15 63 -3 4 -9 47 -14 94 -5 47 -14 92
-21 100 -10 12 -89 14 -490 14 -421 0 -479 -2 -493 -16z"/>
<path d="M9972 13987 c-6 -7 -16 -46 -21 -87 -6 -41 -17 -102 -25 -135 -80
-338 -169 -719 -186 -795 -17 -77 -32 -137 -46 -180 -8 -25 -14 -54 -14 -66 0
-11 -6 -40 -14 -65 -7 -24 -21 -75 -29 -114 -39 -173 -47 -205 -66 -285 -11
-47 -27 -119 -36 -160 -20 -89 -35 -132 -49 -142 -6 -4 -232 -8 -503 -8 -270
0 -498 -3 -507 -6 -23 -9 -24 -249 -1 -257 8 -4 287 -7 621 -8 l608 -1 17 53
c16 52 33 114 49 189 4 19 38 163 75 320 65 279 89 380 105 450 12 56 31 131
45 185 15 59 34 136 45 185 8 36 13 56 75 320 19 85 40 176 45 202 5 26 16 63
24 82 l15 36 373 0 c278 0 377 3 386 12 8 8 12 53 12 134 0 98 -3 126 -16 138
-14 14 -72 16 -493 16 -378 0 -481 -3 -489 -13z"/>
<path d="M6483 13792 c-83 -39 -113 -58 -113 -72 0 -4 22 -40 48 -81 83 -127
137 -238 189 -389 19 -58 38 -71 77 -51 11 6 52 24 90 39 89 36 96 47 72 114
-55 159 -239 478 -274 478 -4 0 -44 -17 -89 -38z"/>
<path d="M7232 13798 c-7 -7 -12 -37 -12 -69 0 -72 -32 -279 -59 -387 -98
-381 -328 -690 -667 -895 -66 -40 -308 -157 -325 -157 -19 0 -69 -30 -69 -42
0 -6 17 -29 38 -52 20 -23 52 -60 71 -83 18 -23 41 -45 51 -48 26 -8 214 77
349 158 251 151 454 351 590 582 64 109 126 240 159 340 69 206 129 587 97
619 -7 7 -50 18 -96 25 -46 6 -91 14 -99 17 -9 2 -21 -1 -28 -8z"/>
<path d="M5374 13693 c-31 -21 -164 -263 -214 -388 -129 -325 -153 -624 -76
-955 19 -81 41 -157 54 -190 6 -14 20 -50 32 -80 34 -85 126 -265 163 -318
l34 -47 80 -3 c112 -4 113 -1 57 134 -88 211 -123 331 -161 539 -24 140 -24
511 0 640 32 166 85 337 158 510 23 55 42 114 43 130 l1 30 -80 3 c-44 1 -85
-1 -91 -5z"/>
<path d="M7843 13692 c-9 -6 0 -39 36 -127 143 -354 181 -535 181 -865 0 -229
-11 -317 -65 -534 -32 -126 -51 -183 -110 -319 -25 -60 -44 -115 -41 -123 4
-10 26 -14 85 -14 92 0 97 3 157 104 141 238 223 489 249 766 20 224 1 394
-72 625 -60 188 -208 470 -258 489 -24 9 -148 7 -162 -2z"/>
<path d="M5936 13645 c-50 -24 -94 -51 -99 -60 -6 -11 4 -35 36 -83 70 -106
131 -228 175 -352 39 -112 41 -115 69 -114 16 1 60 16 97 33 37 17 73 31 80
31 8 0 19 7 26 15 10 12 8 27 -10 78 -58 163 -246 498 -278 497 -4 -1 -47 -21
-96 -45z"/>
<path d="M7211 11103 c-11 -10 -46 -79 -76 -153 -31 -74 -65 -155 -76 -180
-11 -25 -27 -61 -36 -80 -8 -19 -19 -42 -23 -51 -14 -28 -117 -272 -150 -354
-17 -44 -43 -105 -57 -135 -44 -98 -52 -114 -77 -170 -13 -30 -52 -123 -86
-205 -34 -83 -106 -253 -160 -380 -174 -410 -221 -528 -216 -542 8 -19 30 -16
50 6 16 18 385 869 572 1319 47 112 88 211 93 220 11 24 52 117 86 197 9 22
22 54 30 70 26 61 35 82 64 157 27 69 45 112 86 203 21 48 25 64 19 80 -8 19
-17 19 -43 -2z"/>
<path d="M2100 10583 c-171 -22 -320 -125 -382 -264 -59 -132 -42 -327 40
-444 42 -61 138 -128 218 -153 42 -13 119 -25 198 -31 104 -8 139 -15 180 -35
77 -38 100 -75 101 -161 0 -59 -4 -76 -25 -105 -54 -77 -110 -100 -245 -100
-229 0 -362 102 -439 337 -19 58 -26 66 -50 57 -15 -6 -16 -31 -14 -213 3
-198 4 -206 23 -208 14 -2 29 10 48 37 15 23 34 43 41 46 8 3 32 -6 53 -19 21
-14 64 -35 93 -47 30 -12 66 -27 80 -32 14 -6 71 -13 128 -16 244 -11 429 95
513 296 30 73 32 84 32 200 -1 160 -22 222 -103 304 -86 86 -170 115 -360 124
-149 7 -220 31 -261 87 -54 75 -30 190 50 244 51 34 106 46 201 41 72 -3 94
-9 146 -37 34 -18 77 -49 97 -69 38 -40 77 -107 77 -133 0 -22 26 -43 45 -35
13 5 15 29 13 163 -3 144 -5 158 -21 161 -12 3 -29 -8 -46 -29 -31 -37 -39
-36 -139 6 -49 20 -82 27 -160 29 -53 3 -113 2 -132 -1z"/>
<path d="M3380 10581 c-82 -12 -137 -29 -205 -63 -232 -117 -358 -332 -358
-608 0 -277 127 -492 360 -610 90 -45 153 -60 284 -67 91 -4 133 -2 195 12
190 42 358 165 443 325 39 72 41 110 7 110 -13 0 -26 -7 -30 -15 -17 -45 -102
-158 -158 -210 -108 -101 -249 -156 -403 -157 -109 -2 -166 38 -192 134 -20
70 -31 524 -14 556 12 22 12 22 426 22 227 0 420 3 429 6 22 9 20 39 -9 129
-30 91 -45 120 -102 196 -116 155 -280 234 -501 243 -64 3 -142 1 -172 -3z
m210 -70 c23 -12 44 -36 63 -71 27 -52 27 -56 25 -209 l-3 -156 -175 -3 c-156
-2 -176 -1 -187 15 -16 21 -17 168 -2 268 11 81 41 134 90 158 47 23 145 22
189 -2z"/>
<path d="M7785 10581 c-160 -27 -305 -130 -360 -256 -97 -217 -13 -474 187
-576 70 -36 117 -46 276 -59 179 -15 238 -47 268 -146 28 -93 -21 -190 -117
-233 -57 -27 -236 -30 -301 -5 -142 52 -210 123 -277 289 -39 95 -45 102 -66
85 -12 -10 -15 -43 -15 -200 0 -104 3 -195 6 -204 11 -28 38 -17 72 29 18 25
38 45 44 45 6 0 32 -13 57 -28 105 -63 208 -92 331 -92 300 0 510 204 510 494
0 189 -63 311 -192 373 -85 41 -143 54 -273 60 -170 7 -250 40 -280 115 -30
76 -9 149 62 207 47 39 89 51 179 51 91 0 160 -21 223 -68 63 -48 88 -80 117
-151 16 -39 28 -56 41 -56 16 0 18 14 21 163 2 152 1 162 -16 162 -10 0 -31
-14 -48 -31 -34 -35 -47 -35 -142 5 -49 21 -83 28 -160 31 -53 2 -119 0 -147
-4z"/>
<path d="M9090 10584 c-194 -24 -369 -133 -475 -298 -124 -195 -138 -478 -34
-691 62 -127 165 -229 295 -294 96 -48 155 -61 294 -67 127 -6 183 3 300 48
129 49 270 174 328 290 37 73 38 101 6 106 -17 2 -30 -12 -64 -70 -24 -40 -73
-103 -109 -139 -106 -106 -272 -173 -426 -172 -116 0 -172 52 -194 178 -16 88
-15 507 1 523 9 9 118 12 429 12 347 0 419 2 428 14 17 20 -10 119 -59 221
-74 154 -223 274 -396 319 -61 16 -258 28 -324 20z m195 -71 c74 -41 97 -114
93 -298 l-3 -140 -174 -3 c-126 -2 -177 1 -188 10 -12 10 -14 38 -11 158 4
155 19 212 67 254 44 40 159 50 216 19z"/>
<path d="M4319 10556 c-22 -23 -8 -36 37 -36 62 0 81 -13 108 -73 13 -29 55
-117 93 -197 39 -80 86 -179 105 -220 100 -212 120 -254 171 -360 30 -63 78
-164 107 -225 28 -60 58 -125 67 -143 14 -30 51 -51 70 -39 16 11 54 99 168
392 36 94 70 179 74 190 5 11 23 53 40 94 17 40 31 79 31 86 0 18 24 35 37 27
6 -4 23 -36 38 -72 15 -36 43 -99 62 -140 19 -41 46 -101 59 -133 14 -32 41
-93 60 -135 69 -147 83 -177 107 -234 28 -63 56 -85 87 -68 11 6 20 12 20 13
0 1 27 81 61 177 85 248 238 699 249 735 8 30 20 66 46 138 50 135 66 159 128
179 22 7 41 18 43 25 8 22 -33 28 -157 23 -99 -4 -125 -8 -125 -19 0 -8 14
-19 30 -24 49 -16 67 -37 62 -72 -9 -52 -213 -646 -223 -647 -12 -1 -50 76
-199 405 -70 153 -125 286 -123 295 2 12 15 18 41 20 30 3 37 7 35 20 -3 15
-32 17 -293 22 -160 3 -298 1 -308 -3 -29 -13 -14 -32 32 -38 23 -3 48 -12 55
-20 7 -8 39 -72 71 -144 32 -71 67 -149 78 -173 l19 -42 -63 -160 c-43 -110
-68 -160 -79 -160 -15 0 -64 96 -255 495 -41 88 -74 169 -73 180 2 13 13 22
32 25 32 5 46 27 23 35 -25 10 -638 10 -648 1z"/>
<path d="M10019 10556 c-22 -23 -9 -36 35 -36 77 0 58 30 265 -402 28 -59 51
-109 51 -112 0 -2 33 -73 74 -158 88 -184 136 -284 210 -443 57 -121 75 -145
108 -145 22 0 40 38 133 275 25 66 69 176 97 245 28 69 58 145 68 170 10 25
23 58 29 73 7 18 17 27 27 25 14 -3 62 -99 141 -283 14 -33 42 -96 63 -140 64
-135 100 -215 100 -220 0 -3 14 -34 31 -70 54 -110 91 -100 138 37 18 51 36
107 41 123 5 17 52 156 105 310 53 154 100 294 105 310 30 104 112 323 128
344 19 25 39 38 94 60 18 7 26 16 22 25 -8 21 -16 22 -154 16 -107 -4 -125 -7
-128 -22 -2 -12 6 -19 33 -24 51 -9 73 -45 56 -88 -7 -17 -17 -44 -21 -61 -20
-70 -187 -555 -193 -561 -6 -7 -46 34 -47 48 0 4 -15 40 -34 80 -54 116 -95
206 -136 298 -21 47 -56 125 -79 174 -23 49 -40 95 -37 102 3 7 22 14 43 16
26 2 38 8 38 18 0 13 -41 16 -290 20 -159 3 -298 1 -307 -3 -33 -15 -21 -37
20 -37 21 0 45 -6 54 -12 9 -7 40 -65 68 -128 29 -63 65 -143 81 -178 l30 -62
-32 -78 c-18 -42 -38 -93 -45 -112 -31 -85 -54 -130 -68 -130 -8 0 -26 24 -39
53 -14 28 -84 171 -155 317 -71 146 -132 276 -137 289 -8 26 6 41 42 41 25 0
40 17 26 31 -13 13 -641 17 -654 5z"/>
<path d="M3654 8190 c-125 -40 -204 -148 -211 -290 -8 -150 74 -278 208 -325
55 -20 174 -19 233 1 28 10 62 14 82 11 l34 -6 0 85 c0 46 -4 84 -8 84 -11 0
-42 -34 -42 -46 0 -20 -61 -83 -100 -103 -81 -42 -193 -13 -239 62 -72 119
-67 347 11 441 37 45 96 76 144 76 71 0 153 -56 185 -125 24 -50 44 -38 47 27
3 67 -11 102 -38 93 -10 -3 -51 3 -91 15 -90 25 -136 25 -215 0z"/>
<path d="M5325 8193 c-76 -20 -123 -50 -167 -105 -51 -63 -68 -116 -68 -208 0
-92 17 -145 68 -208 61 -76 141 -112 249 -112 178 0 311 136 312 320 1 105
-21 162 -89 231 -83 84 -191 113 -305 82z m153 -32 c86 -44 122 -126 122 -279
0 -147 -32 -228 -111 -278 -77 -49 -178 -21 -236 65 -34 51 -43 95 -43 218 0
154 27 221 108 269 47 28 111 30 160 5z"/>
<path d="M9655 8195 c-27 -8 -53 -14 -56 -15 -20 -1 -100 -66 -125 -102 -96
-136 -81 -313 35 -429 38 -38 72 -61 105 -72 63 -22 169 -22 230 -1 38 13 56
14 84 6 19 -6 39 -9 44 -6 4 3 8 51 8 107 0 118 6 147 29 148 12 0 11 2 -4 9
-24 10 -101 12 -133 4 -22 -6 -22 -8 -6 -25 25 -28 24 -151 -1 -179 -24 -27
-100 -60 -137 -60 -54 0 -134 53 -162 108 -36 71 -47 226 -22 319 21 78 51
120 107 148 59 30 111 32 172 5 50 -22 80 -57 99 -116 8 -22 20 -40 31 -42 15
-3 17 6 17 82 0 54 -4 87 -12 92 -6 4 -33 6 -60 5 -26 -1 -68 5 -93 14 -55 18
-84 18 -150 0z"/>
<path d="M4393 8193 c-27 -5 -29 -16 -8 -33 13 -11 15 -55 15 -281 l0 -269
-32 -20 c-25 -15 -28 -20 -16 -25 9 -4 106 -5 217 -3 166 2 203 6 211 18 12
19 8 176 -4 173 -5 -1 -21 -30 -35 -65 -32 -77 -77 -108 -157 -108 -85 0 -84
-5 -84 298 0 188 3 268 12 282 7 10 9 22 5 26 -8 9 -95 14 -124 7z"/>
<path d="M6068 8189 c-15 -8 -18 -25 -18 -94 0 -79 13 -118 26 -78 22 65 59
125 82 134 15 6 33 15 40 22 12 10 11 13 -9 18 -37 11 -102 10 -121 -2z"/>
<path d="M6258 8193 c-20 -5 -24 -28 -8 -38 6 -4 10 -106 10 -274 0 -247 -1
-269 -18 -284 -10 -10 -29 -17 -41 -17 -12 0 -19 -4 -16 -10 8 -13 245 -12
245 1 0 5 -8 9 -18 9 -11 0 -26 8 -35 18 -15 16 -17 51 -17 281 0 218 3 266
15 285 15 23 15 24 -16 30 -34 7 -74 6 -101 -1z"/>
<path d="M6438 8193 c-28 -7 -21 -21 15 -37 36 -15 77 -70 77 -104 0 -21 24
-52 41 -52 5 0 9 38 9 84 0 102 -10 117 -78 115 -26 -1 -55 -3 -64 -6z"/>
<path d="M6963 8193 c-27 -5 -29 -16 -8 -33 13 -10 15 -54 15 -280 l0 -269
-25 -19 c-14 -11 -22 -23 -17 -26 14 -8 181 -6 187 3 2 5 -6 16 -20 25 -24 16
-25 20 -25 132 0 63 5 124 10 135 10 17 22 19 145 19 168 0 165 3 165 -150 0
-102 -1 -108 -26 -131 -14 -13 -29 -23 -32 -21 -4 2 -8 -1 -10 -7 -2 -7 33
-11 107 -11 70 0 111 4 111 10 0 6 -8 14 -17 17 -10 4 -21 11 -25 17 -12 18
-9 535 3 558 6 11 8 23 4 26 -9 9 -131 9 -141 0 -3 -4 1 -19 10 -32 12 -19 16
-49 16 -121 0 -132 -3 -135 -154 -135 -63 0 -126 4 -140 10 -26 9 -26 10 -26
121 0 91 3 116 17 131 9 10 13 21 10 25 -9 8 -105 13 -134 6z"/>
<path d="M7953 8193 c-27 -5 -29 -16 -8 -33 13 -10 15 -54 15 -280 0 -246 -1
-268 -18 -283 -10 -10 -25 -17 -33 -17 -12 0 -11 -2 1 -10 20 -13 187 -13 195
0 3 6 2 10 -4 10 -5 0 -17 7 -25 16 -14 13 -16 53 -16 280 0 174 4 272 11 286
9 16 8 23 -2 29 -14 9 -76 10 -116 2z"/>
<path d="M8517 8193 c-13 -3 -16 -9 -10 -21 4 -10 9 -137 11 -285 3 -273 -2
-311 -35 -305 -9 2 -18 -3 -20 -9 -4 -10 16 -13 76 -13 77 0 105 12 64 27 -10
4 -21 11 -25 17 -11 15 -10 436 0 436 13 0 61 -56 236 -274 141 -176 161 -197
184 -194 l27 3 3 284 c2 248 4 287 19 303 21 23 13 30 -36 32 -49 1 -59 -8
-38 -32 15 -16 17 -46 17 -220 0 -220 -3 -230 -52 -169 -14 17 -59 73 -100
122 -40 50 -109 134 -152 188 -94 118 -107 126 -169 110z"/>
<path d="M8185 6873 c-153 -46 -155 -47 -155 -67 0 -10 7 -44 16 -75 9 -31 22
-78 30 -106 7 -27 20 -72 28 -100 33 -118 87 -325 136 -515 17 -69 38 -145 45
-170 7 -25 20 -74 30 -110 9 -36 23 -83 31 -105 8 -23 14 -49 14 -60 0 -11 6
-37 14 -60 8 -22 22 -69 31 -105 10 -36 23 -85 30 -110 7 -25 28 -101 45 -170
47 -185 88 -338 105 -400 19 -65 37 -131 60 -220 10 -36 23 -85 30 -110 7 -25
34 -126 60 -225 26 -99 58 -220 72 -270 14 -49 27 -101 30 -115 3 -14 11 -47
19 -75 21 -70 40 -140 89 -320 9 -33 22 -82 30 -110 7 -27 35 -131 60 -230 26
-99 53 -202 61 -230 7 -27 20 -77 29 -110 36 -134 73 -270 88 -315 6 -19 13
-53 16 -75 l6 -40 607 -3 c599 -2 607 -2 618 18 6 12 10 66 8 132 l-3 113
-504 5 c-435 4 -505 7 -511 20 -8 16 -27 82 -55 190 -10 36 -23 85 -30 110 -7
25 -34 126 -60 225 -26 99 -53 205 -61 235 -14 52 -21 76 -60 217 -9 32 -21
74 -27 93 -6 19 -14 51 -18 70 -4 19 -14 58 -22 85 -8 28 -38 138 -66 245 -63
241 -93 352 -121 455 -13 44 -26 96 -31 115 -4 19 -15 58 -23 85 -24 83 -73
264 -131 490 -41 159 -70 268 -91 340 -8 28 -19 66 -23 85 -5 19 -16 62 -26
95 -25 88 -100 371 -136 510 -16 66 -34 131 -38 145 -5 14 -16 54 -26 90 -9
36 -23 88 -30 115 -24 89 -43 159 -60 220 -9 33 -20 71 -24 85 -8 31 -36 34
-106 13z"/>
<path d="M5220 6858 c-5 -13 -21 -68 -36 -123 -14 -55 -32 -122 -40 -150 -8
-27 -19 -66 -23 -85 -5 -19 -19 -71 -31 -115 -12 -44 -26 -93 -30 -110 -4 -16
-17 -64 -28 -105 -11 -41 -39 -147 -62 -235 -23 -88 -45 -173 -50 -190 -4 -16
-15 -55 -23 -85 -8 -30 -22 -82 -32 -115 -23 -85 -41 -150 -60 -225 -10 -36
-23 -85 -30 -110 -7 -25 -34 -126 -60 -225 -66 -254 -85 -326 -149 -558 -8
-28 -22 -79 -31 -112 -8 -33 -22 -82 -29 -110 -8 -27 -35 -131 -61 -230 -56
-218 -72 -276 -89 -335 -8 -25 -21 -74 -30 -110 -10 -36 -24 -87 -31 -115 -14
-49 -29 -103 -60 -220 -9 -33 -22 -82 -29 -110 -8 -27 -28 -106 -46 -175 -17
-69 -38 -145 -45 -170 -7 -25 -20 -74 -30 -110 -9 -36 -19 -71 -21 -77 -3 -10
-115 -13 -518 -13 -499 0 -516 -1 -526 -19 -12 -23 -14 -220 -2 -238 6 -9 153
-13 626 -13 656 -2 635 -3 636 44 0 10 7 39 14 65 8 25 22 71 30 101 9 30 22
78 30 105 8 28 35 131 61 230 89 343 129 492 150 565 8 25 21 74 31 110 19 73
40 153 59 220 7 25 34 126 60 225 50 193 67 258 91 345 8 30 22 80 30 110 9
30 21 78 29 105 7 28 21 77 30 110 9 33 22 83 30 110 15 56 90 341 112 425 8
30 18 69 22 85 5 17 19 66 31 110 12 44 26 96 31 115 4 19 15 60 24 90 16 55
32 116 119 445 24 94 54 206 66 250 12 44 26 94 30 110 4 17 18 66 30 110 12
44 26 94 30 110 4 17 18 66 30 110 13 44 24 93 24 110 1 27 -3 31 -54 48 -74
25 -158 47 -176 47 -8 0 -19 -10 -24 -22z"/>
</g>
</svg>
