<?xml version="1.0" standalone="no"?>
<!DOCTYPE svg PUBLIC "-//W3C//DTD SVG 20010904//EN"
 "http://www.w3.org/TR/2001/REC-SVG-20010904/DTD/svg10.dtd">
<svg version="1.0" xmlns="http://www.w3.org/2000/svg"
 width="500.000000pt" height="500.000000pt" viewBox="0 0 500.000000 500.000000"
 preserveAspectRatio="xMidYMid meet">
<metadata>
Created by potrace 1.16, written by Peter Selinger 2001-2019
</metadata>
<g transform="translate(0.000000,500.000000) scale(0.100000,-0.100000)"
fill="#000000" stroke="none">
<path d="M932 4278 l3 -53 142 -3 c124 -2 142 -5 147 -20 10 -33 146 -698 146
-715 0 -15 21 -17 230 -17 l230 0 0 50 0 50 -184 0 c-167 0 -185 2 -190 18
-13 42 -146 699 -146 720 l0 22 -191 0 -190 0 3 -52z"/>
<path d="M3690 4308 c0 -13 -38 -180 -83 -373 l-83 -350 -192 -3 -192 -2 0
-50 0 -49 228 -3 c125 -2 229 -2 230 -1 2 1 43 167 91 370 l87 368 144 5 145
5 3 53 3 52 -190 0 -191 0 0 -22z"/>
<path d="M2395 4253 c-16 -8 -31 -17 -33 -18 -1 -1 13 -28 33 -60 19 -32 40
-74 46 -94 16 -51 19 -52 66 -31 l43 19 -21 48 c-28 67 -81 153 -94 153 -5 -1
-23 -8 -40 -17z"/>
<path d="M2676 4204 c-20 -160 -68 -267 -166 -364 -58 -59 -152 -116 -233
-144 -17 -5 -16 -10 13 -45 l31 -40 44 19 c168 72 297 208 358 376 24 68 55
229 46 238 -3 3 -23 8 -46 12 l-40 6 -7 -58z"/>
<path d="M1960 4168 c-113 -197 -117 -392 -13 -605 35 -72 36 -73 74 -73 44 0
44 1 25 38 -28 55 -57 159 -66 242 -13 115 1 225 45 348 19 53 35 98 35 100 0
1 -16 2 -35 2 -31 0 -37 -5 -65 -52z"/>
<path d="M2198 4199 l-38 -19 30 -49 c16 -26 37 -68 45 -92 8 -24 17 -49 20
-56 3 -9 15 -8 50 4 52 20 52 19 -2 130 -48 98 -58 106 -105 82z"/>
<path d="M2932 4143 c76 -196 77 -381 3 -578 -14 -37 -25 -69 -25 -72 0 -2 17
-3 38 -1 35 3 39 6 74 76 54 110 71 192 66 320 -5 114 -29 193 -87 289 -23 38
-30 43 -62 43 l-37 0 30 -77z"/>
<path d="M2592 3343 c-59 -172 -211 -611 -218 -626 -5 -15 -3 -18 16 -15 21 3
35 38 141 343 65 187 119 343 119 348 0 4 -9 7 -19 7 -14 0 -24 -14 -39 -57z"/>
<path d="M1110 3140 c-87 -16 -132 -81 -109 -162 15 -55 58 -86 130 -94 65 -7
89 -23 89 -58 0 -34 -31 -56 -79 -56 -58 0 -94 21 -116 69 -10 23 -22 41 -27
41 -4 0 -8 -27 -8 -60 0 -64 1 -66 28 -49 14 9 25 8 50 -5 98 -50 222 21 222
127 0 79 -52 127 -137 127 -21 0 -49 7 -61 16 -52 36 -6 102 64 91 42 -7 60
-20 86 -62 l18 -30 0 59 c0 57 -1 58 -18 43 -10 -10 -21 -14 -25 -11 -11 12
-73 20 -107 14z"/>
<path d="M1485 3140 c-146 -21 -214 -206 -118 -321 55 -65 159 -87 238 -50 41
19 88 63 98 94 11 29 -10 19 -33 -17 -37 -60 -158 -99 -190 -61 -7 8 -13 50
-13 102 l-2 88 128 3 c70 1 127 7 127 12 0 37 -51 109 -95 133 -29 15 -94 23
-140 17z"/>
<path d="M3161 3138 c-122 -21 -188 -166 -130 -286 30 -61 82 -93 161 -99 52
-4 71 0 108 19 53 27 114 108 82 108 -5 0 -14 -11 -20 -24 -18 -41 -78 -79
-131 -84 -68 -6 -81 15 -81 125 l0 83 129 0 130 0 -11 33 c-33 98 -122 145
-237 125z"/>
<path d="M1760 3130 c0 -5 8 -10 18 -10 14 0 38 -42 103 -180 46 -99 88 -180
94 -180 5 0 30 52 55 115 25 63 47 115 50 115 3 0 28 -50 55 -112 28 -61 55
-113 62 -115 6 -3 28 46 53 124 66 198 80 233 96 233 8 0 14 5 14 10 0 6 -18
10 -40 10 -22 0 -40 -4 -40 -10 0 -5 7 -10 15 -10 8 0 15 -3 15 -7 0 -14 -64
-193 -70 -193 -12 0 -92 194 -81 198 6 2 11 8 11 13 0 5 -40 9 -90 9 -53 0
-90 -4 -90 -10 0 -5 7 -10 15 -10 8 0 27 -24 41 -52 l26 -53 -22 -50 -22 -50
-49 100 c-28 55 -45 101 -39 103 5 2 10 8 10 13 0 5 -43 9 -95 9 -57 0 -95 -4
-95 -10z"/>
<path d="M2755 3130 c-88 -36 -99 -181 -17 -224 15 -8 50 -17 77 -21 28 -4 58
-11 67 -16 26 -14 32 -47 14 -74 -14 -21 -24 -25 -69 -25 -64 0 -89 16 -122
78 l-24 47 -1 -67 c0 -63 10 -87 23 -54 5 12 12 11 44 -5 107 -55 226 12 226
126 0 78 -54 125 -143 125 -39 0 -80 26 -80 50 0 22 49 60 77 60 36 0 89 -33
98 -59 11 -36 25 -23 25 24 0 42 -11 58 -25 35 -4 -7 -12 -7 -25 0 -22 12
-117 12 -145 0z"/>
<path d="M3440 3135 c0 -3 10 -9 22 -14 16 -6 44 -55 104 -182 45 -96 87 -174
94 -174 7 0 32 51 57 113 25 62 49 110 53 105 3 -4 28 -56 55 -116 27 -59 53
-106 58 -104 6 2 38 81 71 177 45 128 66 176 79 178 36 7 15 22 -30 22 -45 -1
-47 -2 -28 -15 19 -15 19 -17 -14 -116 -18 -55 -34 -99 -36 -97 -2 2 -23 48
-48 103 -40 90 -43 101 -28 112 13 10 -1 12 -76 13 -56 0 -93 -4 -93 -10 0 -5
6 -10 13 -10 15 0 57 -81 57 -108 0 -9 -9 -35 -19 -57 l-18 -40 -49 99 c-33
67 -44 101 -36 104 7 2 12 8 12 13 0 5 -45 9 -100 9 -55 0 -100 -2 -100 -5z"/>
<path d="M1925 2166 c-12 -42 -374 -1397 -406 -1518 l-10 -38 -194 0 -195 0 0
-50 0 -50 215 -2 c118 -1 223 -2 232 -2 14 -1 54 134 240 829 123 457 222 836
220 844 -1 8 -21 19 -45 26 l-42 13 -15 -52z"/>
<path d="M3012 2207 c-31 -9 -33 -13 -28 -41 16 -80 443 -1657 449 -1657 4 1
106 1 227 1 l220 0 0 50 0 50 -188 0 -189 0 -173 647 c-267 997 -256 958 -271
960 -8 0 -29 -4 -47 -10z"/>
</g>
</svg>
