<!-- Generated by IcoMoon.io -->
<svg version="1.1" xmlns="http://www.w3.org/2000/svg" width="640" height="640" viewBox="0 0 640 640">
<title>cart</title>
<g id="icomoon-ignore">
</g>
<path d="M240 580c0 33.137-26.863 60-60 60s-60-26.863-60-60c0-33.137 26.863-60 60-60s60 26.863 60 60z"></path>
<path d="M640 580c0 33.137-26.863 60-60 60s-60-26.863-60-60c0-33.137 26.863-60 60-60s60 26.863 60 60z"></path>
<path d="M640 320v-240h-480c0-22.091-17.909-40-40-40h-120v40h80l30.046 257.534c-18.309 14.661-30.046 37.188-30.046 62.466 0 44.185 35.817 80 80 80h480v-40h-480c-22.091 0-40-17.909-40-40 0-0.136 0.009-0.273 0.010-0.41l519.99-79.59z"></path>
</svg>
