<svg xmlns="http://www.w3.org/2000/svg" version="1.0" preserveAspectRatio="xMidYMid meet" viewBox="168.12 100 1040.38 1173.07">
<metadata>
Created by potrace 1.10, written by Peter Selinger 2001-2011
</metadata>
<g transform="translate(0.000000,1500.000000) scale(0.100000,-0.100000)" fill="#000000" stroke="none">
<path d="M2526 13984 c-13 -12 -16 -40 -16 -138 0 -81 4 -126 12 -134 9 -9 107 -12 378 -12 201 0 370 -4 376 -8 14 -10 27 -61 79 -322 25 -124 53 -259 61 -300 9 -41 20 -95 24 -120 5 -25 19 -88 31 -140 12 -52 25 -115 29 -140 4 -25 12 -65 18 -90 5 -25 17 -79 26 -120 9 -41 22 -106 31 -145 37 -172 98 -477 109 -548 8 -43 18 -83 23 -88 10 -10 1212 -13 1222 -3 3 3 8 59 9 125 l4 119 -27 10 c-16 6 -208 10 -505 10 -447 0 -479 1 -484 18 -3 9 -21 96 -41 192 -19 96 -39 193 -44 215 -5 22 -17 78 -26 125 -9 47 -23 108 -31 136 -8 28 -14 61 -14 73 0 12 -6 47 -14 79 -8 31 -22 91 -30 132 -9 41 -22 107 -31 145 -25 118 -126 617 -136 674 -6 30 -12 58 -15 63 -3 4 -9 47 -14 94 -5 47 -14 92 -21 100 -10 12 -89 14 -490 14 -421 0 -479 -2 -493 -16z"/>
<path d="M9972 13987 c-6 -7 -16 -46 -21 -87 -6 -41 -17 -102 -25 -135 -80 -338 -169 -719 -186 -795 -17 -77 -32 -137 -46 -180 -8 -25 -14 -54 -14 -66 0 -11 -6 -40 -14 -65 -7 -24 -21 -75 -29 -114 -39 -173 -47 -205 -66 -285 -11 -47 -27 -119 -36 -160 -20 -89 -35 -132 -49 -142 -6 -4 -232 -8 -503 -8 -270 0 -498 -3 -507 -6 -23 -9 -24 -249 -1 -257 8 -4 287 -7 621 -8 l608 -1 17 53 c16 52 33 114 49 189 4 19 38 163 75 320 65 279 89 380 105 450 12 56 31 131 45 185 15 59 34 136 45 185 8 36 13 56 75 320 19 85 40 176 45 202 5 26 16 63 24 82 l15 36 373 0 c278 0 377 3 386 12 8 8 12 53 12 134 0 98 -3 126 -16 138 -14 14 -72 16 -493 16 -378 0 -481 -3 -489 -13z"/>
<path d="M6483 13792 c-83 -39 -113 -58 -113 -72 0 -4 22 -40 48 -81 83 -127 137 -238 189 -389 19 -58 38 -71 77 -51 11 6 52 24 90 39 89 36 96 47 72 114 -55 159 -239 478 -274 478 -4 0 -44 -17 -89 -38z"/>
<path d="M7232 13798 c-7 -7 -12 -37 -12 -69 0 -72 -32 -279 -59 -387 -98 -381 -328 -690 -667 -895 -66 -40 -308 -157 -325 -157 -19 0 -69 -30 -69 -42 0 -6 17 -29 38 -52 20 -23 52 -60 71 -83 18 -23 41 -45 51 -48 26 -8 214 77 349 158 251 151 454 351 590 582 64 109 126 240 159 340 69 206 129 587 97 619 -7 7 -50 18 -96 25 -46 6 -91 14 -99 17 -9 2 -21 -1 -28 -8z"/>
<path d="M5374 13693 c-31 -21 -164 -263 -214 -388 -129 -325 -153 -624 -76 -955 19 -81 41 -157 54 -190 6 -14 20 -50 32 -80 34 -85 126 -265 163 -318 l34 -47 80 -3 c112 -4 113 -1 57 134 -88 211 -123 331 -161 539 -24 140 -24 511 0 640 32 166 85 337 158 510 23 55 42 114 43 130 l1 30 -80 3 c-44 1 -85 -1 -91 -5z"/>
<path d="M7843 13692 c-9 -6 0 -39 36 -127 143 -354 181 -535 181 -865 0 -229 -11 -317 -65 -534 -32 -126 -51 -183 -110 -319 -25 -60 -44 -115 -41 -123 4 -10 26 -14 85 -14 92 0 97 3 157 104 141 238 223 489 249 766 20 224 1 394 -72 625 -60 188 -208 470 -258 489 -24 9 -148 7 -162 -2z"/>
<path d="M5936 13645 c-50 -24 -94 -51 -99 -60 -6 -11 4 -35 36 -83 70 -106 131 -228 175 -352 39 -112 41 -115 69 -114 16 1 60 16 97 33 37 17 73 31 80 31 8 0 19 7 26 15 10 12 8 27 -10 78 -58 163 -246 498 -278 497 -4 -1 -47 -21 -96 -45z"/>
<path d="M7211 11103 c-11 -10 -46 -79 -76 -153 -31 -74 -65 -155 -76 -180 -11 -25 -27 -61 -36 -80 -8 -19 -19 -42 -23 -51 -14 -28 -117 -272 -150 -354 -17 -44 -43 -105 -57 -135 -44 -98 -52 -114 -77 -170 -13 -30 -52 -123 -86 -205 -34 -83 -106 -253 -160 -380 -174 -410 -221 -528 -216 -542 8 -19 30 -16 50 6 16 18 385 869 572 1319 47 112 88 211 93 220 11 24 52 117 86 197 9 22 22 54 30 70 26 61 35 82 64 157 27 69 45 112 86 203 21 48 25 64 19 80 -8 19 -17 19 -43 -2z"/>
<path d="M2100 10583 c-171 -22 -320 -125 -382 -264 -59 -132 -42 -327 40 -444 42 -61 138 -128 218 -153 42 -13 119 -25 198 -31 104 -8 139 -15 180 -35 77 -38 100 -75 101 -161 0 -59 -4 -76 -25 -105 -54 -77 -110 -100 -245 -100 -229 0 -362 102 -439 337 -19 58 -26 66 -50 57 -15 -6 -16 -31 -14 -213 3 -198 4 -206 23 -208 14 -2 29 10 48 37 15 23 34 43 41 46 8 3 32 -6 53 -19 21 -14 64 -35 93 -47 30 -12 66 -27 80 -32 14 -6 71 -13 128 -16 244 -11 429 95 513 296 30 73 32 84 32 200 -1 160 -22 222 -103 304 -86 86 -170 115 -360 124 -149 7 -220 31 -261 87 -54 75 -30 190 50 244 51 34 106 46 201 41 72 -3 94 -9 146 -37 34 -18 77 -49 97 -69 38 -40 77 -107 77 -133 0 -22 26 -43 45 -35 13 5 15 29 13 163 -3 144 -5 158 -21 161 -12 3 -29 -8 -46 -29 -31 -37 -39 -36 -139 6 -49 20 -82 27 -160 29 -53 3 -113 2 -132 -1z"/>
<path d="M3380 10581 c-82 -12 -137 -29 -205 -63 -232 -117 -358 -332 -358 -608 0 -277 127 -492 360 -610 90 -45 153 -60 284 -67 91 -4 133 -2 195 12 190 42 358 165 443 325 39 72 41 110 7 110 -13 0 -26 -7 -30 -15 -17 -45 -102 -158 -158 -210 -108 -101 -249 -156 -403 -157 -109 -2 -166 38 -192 134 -20 70 -31 524 -14 556 12 22 12 22 426 22 227 0 420 3 429 6 22 9 20 39 -9 129 -30 91 -45 120 -102 196 -116 155 -280 234 -501 243 -64 3 -142 1 -172 -3z m210 -70 c23 -12 44 -36 63 -71 27 -52 27 -56 25 -209 l-3 -156 -175 -3 c-156 -2 -176 -1 -187 15 -16 21 -17 168 -2 268 11 81 41 134 90 158 47 23 145 22 189 -2z"/>
<path d="M7785 10581 c-160 -27 -305 -130 -360 -256 -97 -217 -13 -474 187 -576 70 -36 117 -46 276 -59 179 -15 238 -47 268 -146 28 -93 -21 -190 -117 -233 -57 -27 -236 -30 -301 -5 -142 52 -210 123 -277 289 -39 95 -45 102 -66 85 -12 -10 -15 -43 -15 -200 0 -104 3 -195 6 -204 11 -28 38 -17 72 29 18 25 38 45 44 45 6 0 32 -13 57 -28 105 -63 208 -92 331 -92 300 0 510 204 510 494 0 189 -63 311 -192 373 -85 41 -143 54 -273 60 -170 7 -250 40 -280 115 -30 76 -9 149 62 207 47 39 89 51 179 51 91 0 160 -21 223 -68 63 -48 88 -80 117 -151 16 -39 28 -56 41 -56 16 0 18 14 21 163 2 152 1 162 -16 162 -10 0 -31 -14 -48 -31 -34 -35 -47 -35 -142 5 -49 21 -83 28 -160 31 -53 2 -119 0 -147 -4z"/>
<path d="M9090 10584 c-194 -24 -369 -133 -475 -298 -124 -195 -138 -478 -34 -691 62 -127 165 -229 295 -294 96 -48 155 -61 294 -67 127 -6 183 3 300 48 129 49 270 174 328 290 37 73 38 101 6 106 -17 2 -30 -12 -64 -70 -24 -40 -73 -103 -109 -139 -106 -106 -272 -173 -426 -172 -116 0 -172 52 -194 178 -16 88 -15 507 1 523 9 9 118 12 429 12 347 0 419 2 428 14 17 20 -10 119 -59 221 -74 154 -223 274 -396 319 -61 16 -258 28 -324 20z m195 -71 c74 -41 97 -114 93 -298 l-3 -140 -174 -3 c-126 -2 -177 1 -188 10 -12 10 -14 38 -11 158 4 155 19 212 67 254 44 40 159 50 216 19z"/>
<path d="M4319 10556 c-22 -23 -8 -36 37 -36 62 0 81 -13 108 -73 13 -29 55 -117 93 -197 39 -80 86 -179 105 -220 100 -212 120 -254 171 -360 30 -63 78 -164 107 -225 28 -60 58 -125 67 -143 14 -30 51 -51 70 -39 16 11 54 99 168 392 36 94 70 179 74 190 5 11 23 53 40 94 17 40 31 79 31 86 0 18 24 35 37 27 6 -4 23 -36 38 -72 15 -36 43 -99 62 -140 19 -41 46 -101 59 -133 14 -32 41 -93 60 -135 69 -147 83 -177 107 -234 28 -63 56 -85 87 -68 11 6 20 12 20 13 0 1 27 81 61 177 85 248 238 699 249 735 8 30 20 66 46 138 50 135 66 159 128 179 22 7 41 18 43 25 8 22 -33 28 -157 23 -99 -4 -125 -8 -125 -19 0 -8 14 -19 30 -24 49 -16 67 -37 62 -72 -9 -52 -213 -646 -223 -647 -12 -1 -50 76 -199 405 -70 153 -125 286 -123 295 2 12 15 18 41 20 30 3 37 7 35 20 -3 15 -32 17 -293 22 -160 3 -298 1 -308 -3 -29 -13 -14 -32 32 -38 23 -3 48 -12 55 -20 7 -8 39 -72 71 -144 32 -71 67 -149 78 -173 l19 -42 -63 -160 c-43 -110 -68 -160 -79 -160 -15 0 -64 96 -255 495 -41 88 -74 169 -73 180 2 13 13 22 32 25 32 5 46 27 23 35 -25 10 -638 10 -648 1z"/>
<path d="M10019 10556 c-22 -23 -9 -36 35 -36 77 0 58 30 265 -402 28 -59 51 -109 51 -112 0 -2 33 -73 74 -158 88 -184 136 -284 210 -443 57 -121 75 -145 108 -145 22 0 40 38 133 275 25 66 69 176 97 245 28 69 58 145 68 170 10 25 23 58 29 73 7 18 17 27 27 25 14 -3 62 -99 141 -283 14 -33 42 -96 63 -140 64 -135 100 -215 100 -220 0 -3 14 -34 31 -70 54 -110 91 -100 138 37 18 51 36 107 41 123 5 17 52 156 105 310 53 154 100 294 105 310 30 104 112 323 128 344 19 25 39 38 94 60 18 7 26 16 22 25 -8 21 -16 22 -154 16 -107 -4 -125 -7 -128 -22 -2 -12 6 -19 33 -24 51 -9 73 -45 56 -88 -7 -17 -17 -44 -21 -61 -20 -70 -187 -555 -193 -561 -6 -7 -46 34 -47 48 0 4 -15 40 -34 80 -54 116 -95 206 -136 298 -21 47 -56 125 -79 174 -23 49 -40 95 -37 102 3 7 22 14 43 16 26 2 38 8 38 18 0 13 -41 16 -290 20 -159 3 -298 1 -307 -3 -33 -15 -21 -37 20 -37 21 0 45 -6 54 -12 9 -7 40 -65 68 -128 29 -63 65 -143 81 -178 l30 -62 -32 -78 c-18 -42 -38 -93 -45 -112 -31 -85 -54 -130 -68 -130 -8 0 -26 24 -39 53 -14 28 -84 171 -155 317 -71 146 -132 276 -137 289 -8 26 6 41 42 41 25 0 40 17 26 31 -13 13 -641 17 -654 5z"/>
<path d="M2863 8315 c-79 -22 -131 -52 -184 -106 -59 -61 -96 -137 -108 -226 -32 -224 90 -423 288 -469 100 -24 213 -13 316 30 38 16 40 16 56 -5 10 -14 22 -20 33 -16 13 5 16 22 15 99 -2 96 -11 138 -29 138 -6 0 -13 -8 -16 -17 -46 -141 -153 -213 -296 -200 -149 13 -219 132 -220 372 0 132 14 196 56 260 61 91 171 134 267 104 86 -27 133 -69 175 -157 21 -44 28 -51 40 -41 10 8 14 36 14 104 0 95 -5 125 -21 125 -5 0 -14 -11 -19 -25 -10 -25 -10 -25 -42 -9 -96 50 -226 65 -325 39z"/>
<path d="M4945 8310 c-79 -24 -113 -42 -167 -89 -103 -92 -150 -256 -117 -413 31 -146 143 -260 288 -294 213 -51 414 58 484 261 11 33 17 81 17 140 0 204 -101 343 -289 396 -81 23 -138 23 -216 -1z m172 -32 c66 -18 136 -88 159 -159 25 -80 31 -287 10 -370 -22 -84 -58 -143 -108 -177 -37 -24 -51 -27 -129 -27 -81 0 -90 2 -131 30 -79 56 -120 169 -121 335 -1 157 33 264 102 322 63 53 134 68 218 46z"/>
<path d="M10415 8311 c-208 -62 -321 -250 -285 -474 20 -128 90 -228 197 -284 112 -59 226 -67 346 -25 55 20 62 20 104 6 73 -25 73 -25 73 146 0 112 3 152 13 154 6 3 25 7 40 10 65 15 7 26 -134 26 -126 0 -149 -2 -149 -15 0 -11 11 -15 38 -15 56 0 62 -12 62 -116 0 -105 -13 -131 -78 -157 -155 -62 -286 -7 -342 142 -21 56 -24 81 -23 200 0 176 17 234 88 307 65 66 130 84 225 64 100 -21 136 -56 190 -183 38 -92 58 -38 45 122 l-7 83 -56 -6 c-42 -5 -75 -1 -127 14 -84 24 -140 24 -220 1z"/>
<path d="M3690 8296 c0 -10 13 -16 38 -18 l37 -3 3 -362 2 -363 -39 0 c-37 0 -61 -14 -47 -27 11 -11 556 -10 571 1 10 8 15 41 17 123 1 62 -1 115 -5 119 -12 13 -36 -18 -43 -55 -11 -59 -45 -122 -78 -142 -25 -15 -51 -19 -129 -19 -95 0 -98 1 -107 26 -6 14 -10 163 -10 349 0 359 -1 355 66 355 24 0 34 5 34 15 0 13 -24 15 -155 15 -128 0 -155 -2 -155 -14z"/>
<path d="M5870 8290 c-6 -12 -10 -64 -8 -127 4 -132 19 -143 53 -38 30 92 66 134 127 147 33 6 53 6 67 -2 21 -10 21 -18 21 -354 0 -265 -3 -346 -13 -354 -7 -6 -32 -12 -55 -14 -23 -2 -42 -7 -42 -13 -1 -15 134 -26 243 -19 124 8 140 26 32 36 l-30 3 -3 357 c-2 355 -2 357 19 363 23 8 84 -1 111 -16 30 -16 70 -77 80 -121 5 -24 16 -54 25 -67 29 -44 39 -8 33 120 l-5 114 -322 3 c-314 2 -322 2 -333 -18z"/>
<path d="M6940 8295 c0 -10 10 -15 33 -15 60 0 57 15 55 -371 l-3 -354 -45 -5 c-63 -7 -52 -24 22 -33 83 -10 250 1 245 16 -2 7 -21 14 -43 17 l-39 5 0 170 0 170 180 5 c99 3 186 3 193 1 9 -2 12 -46 12 -176 l0 -174 -42 -3 c-23 -2 -43 -8 -45 -14 -8 -23 272 -29 311 -6 13 7 -16 22 -44 22 -50 0 -50 1 -50 367 0 328 1 343 19 353 11 5 33 10 50 10 21 0 31 5 31 15 0 13 -22 15 -157 13 -99 -2 -157 -7 -156 -13 1 -5 19 -12 40 -15 l38 -5 0 -165 0 -165 -170 -3 c-93 -1 -180 0 -192 3 -23 5 -23 8 -23 160 0 142 2 155 19 165 11 5 32 10 46 10 17 0 25 5 23 13 -4 9 -46 13 -156 15 -131 2 -152 0 -152 -13z"/>
<path d="M8197 8304 c-15 -15 -6 -24 26 -24 60 0 57 15 55 -371 l-3 -354 -39 -5 c-71 -9 -53 -27 35 -34 99 -9 231 2 226 18 -2 6 -20 12 -40 14 l-37 3 2 362 3 362 38 5 c21 3 38 10 37 15 0 11 -292 20 -303 9z"/>
<path d="M8907 8304 c-12 -12 4 -24 29 -24 14 0 34 -5 45 -10 18 -10 19 -25 19 -354 0 -263 -3 -346 -13 -354 -6 -6 -27 -12 -46 -14 -19 -2 -36 -8 -38 -14 -5 -14 97 -23 185 -16 68 5 81 24 21 30 -19 2 -40 8 -46 14 -15 12 -19 543 -4 552 5 3 18 -2 29 -12 19 -16 138 -161 247 -300 28 -35 66 -83 85 -106 19 -24 59 -72 88 -109 57 -71 79 -84 112 -67 20 10 20 19 20 373 0 269 3 366 12 375 7 7 27 12 45 12 23 0 33 5 33 15 0 13 -20 15 -120 15 -100 0 -120 -2 -120 -15 0 -10 10 -15 34 -15 65 0 66 -3 66 -285 0 -157 -4 -256 -10 -260 -17 -11 -35 7 -126 121 -205 256 -323 401 -347 427 -24 25 -31 27 -110 27 -46 0 -87 -3 -90 -6z"/>
<path d="M8185 6873 c-153 -46 -155 -47 -155 -67 0 -10 7 -44 16 -75 9 -31 22 -78 30 -106 7 -27 20 -72 28 -100 33 -118 87 -325 136 -515 17 -69 38 -145 45 -170 7 -25 20 -74 30 -110 9 -36 23 -83 31 -105 8 -23 14 -49 14 -60 0 -11 6 -37 14 -60 8 -22 22 -69 31 -105 10 -36 23 -85 30 -110 7 -25 28 -101 45 -170 47 -185 88 -338 105 -400 19 -65 37 -131 60 -220 10 -36 23 -85 30 -110 7 -25 34 -126 60 -225 26 -99 58 -220 72 -270 14 -49 27 -101 30 -115 3 -14 11 -47 19 -75 21 -70 40 -140 89 -320 9 -33 22 -82 30 -110 7 -27 35 -131 60 -230 26 -99 53 -202 61 -230 7 -27 20 -77 29 -110 36 -134 73 -270 88 -315 6 -19 13 -53 16 -75 l6 -40 607 -3 c599 -2 607 -2 618 18 6 12 10 66 8 132 l-3 113 -504 5 c-435 4 -505 7 -511 20 -8 16 -27 82 -55 190 -10 36 -23 85 -30 110 -7 25 -34 126 -60 225 -26 99 -53 205 -61 235 -14 52 -21 76 -60 217 -9 32 -21 74 -27 93 -6 19 -14 51 -18 70 -4 19 -14 58 -22 85 -8 28 -38 138 -66 245 -63 241 -93 352 -121 455 -13 44 -26 96 -31 115 -4 19 -15 58 -23 85 -24 83 -73 264 -131 490 -41 159 -70 268 -91 340 -8 28 -19 66 -23 85 -5 19 -16 62 -26 95 -25 88 -100 371 -136 510 -16 66 -34 131 -38 145 -5 14 -16 54 -26 90 -9 36 -23 88 -30 115 -24 89 -43 159 -60 220 -9 33 -20 71 -24 85 -8 31 -36 34 -106 13z"/>
<path d="M5220 6858 c-5 -13 -21 -68 -36 -123 -14 -55 -32 -122 -40 -150 -8 -27 -19 -66 -23 -85 -5 -19 -19 -71 -31 -115 -12 -44 -26 -93 -30 -110 -4 -16 -17 -64 -28 -105 -11 -41 -39 -147 -62 -235 -23 -88 -45 -173 -50 -190 -4 -16 -15 -55 -23 -85 -8 -30 -22 -82 -32 -115 -23 -85 -41 -150 -60 -225 -10 -36 -23 -85 -30 -110 -7 -25 -34 -126 -60 -225 -66 -254 -85 -326 -149 -558 -8 -28 -22 -79 -31 -112 -8 -33 -22 -82 -29 -110 -8 -27 -35 -131 -61 -230 -56 -218 -72 -276 -89 -335 -8 -25 -21 -74 -30 -110 -10 -36 -24 -87 -31 -115 -14 -49 -29 -103 -60 -220 -9 -33 -22 -82 -29 -110 -8 -27 -28 -106 -46 -175 -17 -69 -38 -145 -45 -170 -7 -25 -20 -74 -30 -110 -9 -36 -19 -71 -21 -77 -3 -10 -115 -13 -518 -13 -499 0 -516 -1 -526 -19 -12 -23 -14 -220 -2 -238 6 -9 153 -13 626 -13 656 -2 635 -3 636 44 0 10 7 39 14 65 8 25 22 71 30 101 9 30 22 78 30 105 8 28 35 131 61 230 89 343 129 492 150 565 8 25 21 74 31 110 19 73 40 153 59 220 7 25 34 126 60 225 50 193 67 258 91 345 8 30 22 80 30 110 9 30 21 78 29 105 7 28 21 77 30 110 9 33 22 83 30 110 15 56 90 341 112 425 8 30 18 69 22 85 5 17 19 66 31 110 12 44 26 96 31 115 4 19 15 60 24 90 16 55 32 116 119 445 24 94 54 206 66 250 12 44 26 94 30 110 4 17 18 66 30 110 12 44 26 94 30 110 4 17 18 66 30 110 13 44 24 93 24 110 1 27 -3 31 -54 48 -74 25 -158 47 -176 47 -8 0 -19 -10 -24 -22z"/>
</g>
</svg>