<svg xmlns="http://www.w3.org/2000/svg" version="1.0" preserveAspectRatio="xMidYMid meet" viewBox="66.43 68.15 1213.57 1213.85">
<metadata>
Created by potrace 1.10, written by Peter Selinger 2001-2011
</metadata>
<g transform="translate(0.000000,1500.000000) scale(0.100000,-0.100000)" fill="#F8E9E9" stroke="none">
<path d="M679 14304 c-14 -16 -16 -50 -14 -234 1 -118 4 -2836 6 -6040 2 -3204 8 -5831 12 -5837 7 -10 1226 -13 6040 -13 5444 0 6035 2 6055 16 l22 15 0 6040 0 6039 -25 10 c-16 6 -2205 10 -5847 12 -3203 1 -5857 2 -5898 2 -41 0 -106 0 -145 -2 -38 -1 -97 0 -130 4 -51 5 -62 3 -76 -12z m11669 -453 c4 -11 6 -2540 4 -5620 l-2 -5601 -5618 2 -5617 3 -3 5599 c-2 5200 -1 5601 15 5618 16 17 202 18 5615 18 5532 0 5599 0 5606 -19z"/>
<path d="M5490 12270 c-157 -9 -305 -30 -394 -56 -26 -8 -60 -14 -74 -14 -15 0 -44 -6 -67 -14 -22 -8 -60 -19 -85 -26 -198 -52 -347 -120 -540 -248 -229 -152 -407 -349 -530 -587 -9 -19 -14 -28 -40 -72 -6 -10 -13 -25 -16 -33 -3 -8 -12 -28 -19 -45 -22 -50 -52 -136 -70 -205 -9 -36 -21 -74 -27 -84 -10 -19 -19 -66 -38 -194 -5 -35 -13 -68 -17 -75 -4 -7 -10 -57 -14 -112 -4 -55 -12 -176 -18 -270 -8 -119 -11 -649 -9 -1755 l3 -1585 1815 0 1815 0 0 775 0 775 -835 5 c-459 3 -836 6 -838 8 -1 1 -2 430 -2 952 l1 950 30 79 c47 123 89 162 227 215 55 21 174 21 243 0 180 -54 270 -114 438 -288 147 -154 164 -173 193 -213 16 -24 33 -43 38 -43 11 0 60 49 107 108 21 26 51 63 68 82 16 20 48 58 70 85 22 27 48 57 57 67 24 24 217 253 250 296 15 19 43 52 62 72 18 20 63 72 98 116 35 43 77 93 93 110 75 78 285 340 285 356 0 28 -294 314 -395 385 -44 31 -89 64 -100 73 -11 10 -48 33 -83 51 -35 19 -89 48 -120 66 -31 18 -64 35 -72 39 -8 4 -42 19 -75 34 -33 15 -91 37 -130 50 -38 12 -85 28 -103 36 -18 8 -43 14 -56 14 -12 0 -26 3 -30 7 -8 9 -84 29 -158 43 -26 5 -56 13 -67 19 -11 6 -44 11 -73 11 -29 0 -69 5 -88 11 -34 11 -190 22 -435 32 -66 3 -190 1 -275 -3z"/>
<path d="M7945 9568 c-3 -7 -6 -848 -8 -1868 l-2 -1855 -1135 -5 -1135 -5 0 -815 0 -815 2140 0 2140 0 0 2685 0 2685 -998 3 c-793 2 -999 0 -1002 -10z"/>
</g>
</svg>